# Generated with liteGL.js by Javi Agenjo

v -8.8395 11.8764 -7.9700
v -8.8395 0.2512 -7.9700
v -8.8395 0.2512 25.0519
v -8.8395 11.8764 25.0519
v 5.5305 17.9607 -7.9700
v -8.8395 13.3617 -7.9700
v -8.8395 13.3617 25.0519
v 5.5305 17.9607 25.0519
v 5.5305 17.9607 25.0519
v -8.8395 13.3617 25.0519
v -8.8395 11.8764 25.0519
v 5.5305 11.8764 25.0519
v -8.8395 11.8764 -7.9700
v -8.8395 13.3617 -7.9700
v 5.5305 17.9607 -7.9700
v 5.5305 11.8764 -7.9700
v -8.8395 11.8764 25.0519
v -8.8395 13.3617 25.0519
v -8.8395 13.3617 -7.9700
v -8.8395 11.8764 -7.9700
v -8.8395 11.8764 25.0519
v -8.8395 0.2512 25.0519
v 5.5305 0.2512 25.0519
v 5.5305 11.8764 25.0519
v 4.4005 9.5607 -6.7100
v 4.4005 0.1955 -6.7100
v -7.7095 0.1955 -6.7100
v -7.7095 9.5607 -6.7100
v 5.5305 0.2512 -7.9700
v 5.5305 11.8764 -7.9700
v 5.5305 11.8764 25.0519
v 5.5305 0.2512 25.0519
v 5.5305 11.8764 -7.9700
v 5.5305 17.9607 -7.9700
v 5.5305 17.9607 25.0519
v 5.5305 11.8764 25.0519
v 5.5305 11.8764 -7.9700
v 4.4005 9.5607 -7.9700
v -7.7095 9.5607 -7.9700
v -8.8395 11.8764 -7.9700
v 5.5305 0.2512 -7.9700
v 4.4005 0.1955 -7.9700
v 4.4005 9.5607 -7.9700
v 5.5305 11.8764 -7.9700
v -8.8395 11.8764 -7.9700
v -7.7095 9.5607 -7.9700
v -7.7095 0.1955 -7.9700
v -8.8395 0.2512 -7.9700
v 4.4005 9.5607 -7.9700
v 4.4005 9.5607 -6.7100
v -7.7095 9.5607 -6.7100
v -7.7095 9.5607 -7.9700
v 4.4005 0.1955 -7.9700
v 4.4005 0.1955 -6.7100
v 4.4005 9.5607 -6.7100
v 4.4005 9.5607 -7.9700
v -7.7095 9.5607 -7.9700
v -7.7095 9.5607 -6.7100
v -7.7095 0.1955 -6.7100
v -7.7095 0.1955 -7.9700

vn -10.0000 0.0000 0.0000
vn -10.0000 0.0000 0.0000
vn -10.0000 0.0000 0.0000
vn -10.0000 0.0000 0.0000
vn -3.0481 9.5241 0.0000
vn -3.0481 9.5241 0.0000
vn -3.0481 9.5241 0.0000
vn -3.0481 9.5241 0.0000
vn 0.0000 0.0000 10.0000
vn 0.0000 0.0000 10.0000
vn 0.0000 0.0000 10.0000
vn 0.0000 0.0000 10.0000
vn 0.0000 0.0000 -10.0000
vn 0.0000 0.0000 -10.0000
vn 0.0000 0.0000 -10.0000
vn 0.0000 0.0000 -10.0000
vn -10.0000 0.0000 0.0000
vn -10.0000 0.0000 0.0000
vn -10.0000 0.0000 0.0000
vn -10.0000 0.0000 0.0000
vn 0.0000 0.0000 10.0000
vn 0.0000 0.0000 10.0000
vn 0.0000 0.0000 10.0000
vn 0.0000 0.0000 10.0000
vn 0.0000 0.0000 -10.0000
vn 0.0000 0.0000 -10.0000
vn 0.0000 0.0000 -10.0000
vn 0.0000 0.0000 -10.0000
vn 10.0000 0.0000 0.0000
vn 10.0000 0.0000 0.0000
vn 10.0000 0.0000 0.0000
vn 10.0000 0.0000 0.0000
vn 10.0000 0.0000 0.0000
vn 10.0000 0.0000 0.0000
vn 10.0000 0.0000 0.0000
vn 10.0000 0.0000 0.0000
vn 0.0000 0.0000 -10.0000
vn 0.0000 0.0000 -10.0000
vn 0.0000 0.0000 -10.0000
vn 0.0000 0.0000 -10.0000
vn 0.0000 0.0000 -10.0000
vn 0.0000 0.0000 -10.0000
vn 0.0000 0.0000 -10.0000
vn 0.0000 0.0000 -10.0000
vn 0.0000 0.0000 -10.0000
vn 0.0000 0.0000 -10.0000
vn 0.0000 0.0000 -10.0000
vn 0.0000 0.0000 -10.0000
vn -0.0000 -10.0000 0.0000
vn -0.0000 -10.0000 0.0000
vn -0.0000 -10.0000 0.0000
vn -0.0000 -10.0000 0.0000
vn -10.0000 0.0000 0.0000
vn -10.0000 0.0000 0.0000
vn -10.0000 0.0000 0.0000
vn -10.0000 0.0000 0.0000
vn 10.0000 0.0000 0.0000
vn 10.0000 0.0000 0.0000
vn 10.0000 0.0000 0.0000
vn 10.0000 0.0000 0.0000

vt 1.8194 0.5186  0.0000
vt 1.8194 0.2490  0.0000
vt 0.0938 0.2490  0.0000
vt 0.0938 0.5186  0.0000
vt 2.6890 0.9926  0.0000
vt 2.6890 0.7486  0.0000
vt -0.0491 0.7486  0.0000
vt -0.0491 0.9926  0.0000
vt 0.8750 0.4414  0.0000
vt 0.0234 0.3241  0.0000
vt 0.0234 0.2862  0.0000
vt 0.8750 0.2862  0.0000
vt 0.7617 0.2546  0.0000
vt 0.7617 0.2928  0.0000
vt -0.0586 0.4109  0.0000
vt -0.0586 0.2546  0.0000
vt 1.0177 0.2882  0.0000
vt 1.0177 0.2608  0.0000
vt 0.0119 0.2608  0.0000
vt 0.0119 0.2882  0.0000
vt -0.3912 0.5159  0.0000
vt -0.3912 0.2592  0.0000
vt 1.1138 0.2592  0.0000
vt 1.1138 0.5159  0.0000
vt 0.0926 0.2314  0.0000
vt 0.0926 0.0120  0.0000
vt 0.9269 0.0120  0.0000
vt 0.9269 0.2314  0.0000
vt -0.0068 0.2508  0.0000
vt -0.0068 0.5216  0.0000
vt 1.0096 0.5216  0.0000
vt 1.0096 0.2508  0.0000
vt 1.0221 0.4541  0.0000
vt 1.0221 0.3109  0.0000
vt -0.0195 0.3109  0.0000
vt -0.0195 0.4541  0.0000
vt -0.1393 0.5218  0.0000
vt -0.0469 0.4668  0.0000
vt 0.9430 0.4668  0.0000
vt 1.0354 0.5218  0.0000
vt -0.1359 0.2461  0.0000
vt -0.0436 0.2448  0.0000
vt -0.0436 0.4672  0.0000
vt -0.1359 0.5221  0.0000
vt 1.0387 0.5221  0.0000
vt 0.9463 0.4672  0.0000
vt 0.9463 0.2448  0.0000
vt 1.0387 0.2461  0.0000
vt 1.0820 0.4629  0.0000
vt 1.0820 0.5059  0.0000
vt -0.1289 0.5059  0.0000
vt -0.1289 0.4629  0.0000
vt 0.3774 0.2429  0.0000
vt 0.5499 0.2429  0.0000
vt 0.5499 0.4780  0.0000
vt 0.3774 0.4780  0.0000
vt 0.5656 0.4814  0.0000
vt 0.3931 0.4814  0.0000
vt 0.3931 0.2463  0.0000
vt 0.5656 0.2463  0.0000

g mesh
f 1/1/1 2/2/2 3/3/3
f 1/1/1 3/3/3 4/4/4
f 5/5/5 6/6/6 7/7/7
f 5/5/5 7/7/7 8/8/8
f 9/9/9 10/10/10 11/11/11
f 9/9/9 11/11/11 12/12/12
f 13/13/13 14/14/14 15/15/15
f 13/13/13 15/15/15 16/16/16
f 17/17/17 18/18/18 19/19/19
f 17/17/17 19/19/19 20/20/20
f 21/21/21 22/22/22 23/23/23
f 21/21/21 23/23/23 24/24/24
f 25/25/25 26/26/26 27/27/27
f 25/25/25 27/27/27 28/28/28
f 29/29/29 30/30/30 31/31/31
f 29/29/29 31/31/31 32/32/32
f 33/33/33 34/34/34 35/35/35
f 33/33/33 35/35/35 36/36/36
f 37/37/37 38/38/38 39/39/39
f 37/37/37 39/39/39 40/40/40
f 41/41/41 42/42/42 43/43/43
f 41/41/41 43/43/43 44/44/44
f 45/45/45 46/46/46 47/47/47
f 45/45/45 47/47/47 48/48/48
f 49/49/49 50/50/50 51/51/51
f 49/49/49 51/51/51 52/52/52
f 53/53/53 54/54/54 55/55/55
f 53/53/53 55/55/55 56/56/56
f 57/57/57 58/58/58 59/59/59
f 57/57/57 59/59/59 60/60/60
