# Generated with liteGL.js by Javi Agenjo

v 10.7871 10.3280 -6.6631
v 19.1736 10.3280 -6.6631
v 19.1736 3.5857 -6.6631
v 10.7871 3.5857 -6.6631
v 24.1690 11.5981 -7.5532
v 24.1690 17.6824 -7.5532
v 24.1690 17.6824 25.4687
v 24.1690 11.5981 25.4687
v 24.1690 -0.0271 25.4687
v 24.1690 11.5981 25.4687
v -15.7907 11.5981 25.4687
v -15.7907 -0.0271 25.4687
v -15.7907 17.6824 25.4687
v -15.7907 19.9729 25.4687
v -15.7907 19.9729 -7.5532
v -15.7907 17.6824 -7.5532
v 4.4270 24.5879 25.4685
v 24.8258 18.8674 25.4687
v 24.8258 18.8674 -7.5532
v 4.4724 24.5879 -7.5534
v 10.7871 3.5857 -7.5532
v 10.7871 3.5857 -6.6631
v 19.1736 3.5857 -6.6631
v 19.1736 3.5857 -7.5532
v 4.5609 -0.0271 -7.5170
v 4.5609 -0.0271 -6.1571
v 4.5609 11.5981 -6.1571
v 4.5609 11.5981 -7.5170
v 4.5609 11.5981 -7.5170
v 4.5609 11.5981 -6.1571
v -5.6314 11.5981 -6.1931
v -5.6314 11.5981 -7.5532
v -5.6314 11.5981 -7.5532
v -5.6314 11.5981 -6.1931
v -5.6314 -0.0271 -6.1931
v -5.6314 -0.0271 -7.5532
v 24.1690 17.6824 -7.5532
v 24.8258 18.8674 -7.5532
v 24.8258 18.8674 25.4687
v 24.1690 17.6824 25.4687
v -5.6314 -0.0271 -7.5532
v -15.7907 -0.0271 -7.5532
v -15.7907 11.5981 -7.5532
v -5.6314 11.5981 -7.5532
v 4.4724 24.5879 -7.5534
v -15.7907 19.9729 -7.5532
v -15.7907 19.9729 25.4687
v 4.4270 24.5879 25.4685
v -15.7907 17.6824 -7.5532
v -15.7907 19.9729 -7.5532
v 4.4724 24.5879 -7.5534
v 4.4724 17.6824 -7.5532
v -14.8807 4.9998 19.0166
v -14.8807 8.8165 19.0166
v -14.8807 8.8165 16.0984
v -14.8807 4.9998 16.0984
v 4.5609 11.5981 -7.5170
v 10.7871 10.3280 -7.5532
v 10.7871 3.5857 -7.5532
v 4.5609 -0.0271 -7.5170
v 24.1690 11.5981 -7.5532
v 19.1736 10.3280 -7.5532
v 10.7871 10.3280 -7.5532
v 4.5609 11.5981 -7.5170
v 19.1736 3.5857 -7.5532
v 19.1736 3.5857 -6.6631
v 19.1736 10.3280 -6.6631
v 19.1736 10.3280 -7.5532
v 24.1690 -0.0271 -7.5532
v 19.1736 3.5857 -7.5532
v 19.1736 10.3280 -7.5532
v 24.1690 11.5981 -7.5532
v -15.7907 11.5981 25.4687
v -15.7907 17.6824 25.4687
v -15.7907 17.6824 -7.5532
v -15.7907 11.5981 -7.5532
v 24.1690 11.5981 25.4687
v 24.1690 -0.0271 25.4687
v 24.1690 -0.0271 -7.5532
v 24.1690 11.5981 -7.5532
v 24.1690 11.5981 25.4687
v 24.1690 17.6824 25.4687
v -15.7907 17.6824 25.4687
v -15.7907 11.5981 25.4687
v 4.5609 -0.0271 -7.5170
v 10.7871 3.5857 -7.5532
v 19.1736 3.5857 -7.5532
v 24.1690 -0.0271 -7.5532
v 10.7871 10.3280 -7.5532
v 10.7871 10.3280 -6.6631
v 10.7871 3.5857 -6.6631
v 10.7871 3.5857 -7.5532
v 19.1736 10.3280 -7.5532
v 19.1736 10.3280 -6.6631
v 10.7871 10.3280 -6.6631
v 10.7871 10.3280 -7.5532
v 4.5609 -0.0271 -6.1571
v -5.6314 -0.0271 -6.1931
v -5.6314 11.5981 -6.1931
v 4.5609 11.5981 -6.1571
v 4.4724 17.6824 -7.5532
v 24.1690 17.6824 -7.5532
v 24.1690 11.5981 -7.5532
v 4.5609 11.5981 -7.5170
v 4.4724 24.5879 -7.5534
v 24.8258 18.8674 -7.5532
v 24.1690 17.6824 -7.5532
v 4.4724 17.6824 -7.5532
v -15.7907 -0.0271 25.4687
v -15.7907 4.9998 19.0166
v -15.7907 4.9998 16.0984
v -15.7907 -0.0271 -7.5532
v -15.7907 11.5981 25.4687
v -15.7907 8.8165 19.0166
v -15.7907 11.5981 -7.5532
v -15.7907 8.8165 16.0984
v -15.7907 4.9998 19.0166
v -14.8807 4.9998 19.0166
v -14.8807 4.9998 16.0984
v -15.7907 4.9998 16.0984
v -15.7907 8.8165 19.0166
v -14.8807 8.8165 19.0166
v -14.8807 4.9998 19.0166
v -15.7907 4.9998 19.0166
v -15.7907 8.8165 16.0984
v -14.8807 8.8165 16.0984
v -14.8807 8.8165 19.0166
v -15.7907 8.8165 19.0166
v -15.7907 4.9998 16.0984
v -14.8807 4.9998 16.0984
v -14.8807 8.8165 16.0984
v -15.7907 8.8165 16.0984
v 4.4724 17.6824 -7.5532
v 4.5609 11.5981 -7.5170
v -5.6314 11.5981 -7.5532
v -15.7907 11.5981 -7.5532
v -15.7907 17.6824 -7.5532
v 4.4270 24.5879 25.4685
v -15.7907 19.9729 25.4687
v -15.7907 17.6824 25.4687
v 24.1690 17.6824 25.4687
v 24.8258 18.8674 25.4687

vn 0.0000 0.0000 -10.0000
vn 0.0000 0.0000 -10.0000
vn 0.0000 0.0000 -10.0000
vn 0.0000 0.0000 -10.0000
vn 10.0000 0.0000 0.0000
vn 10.0000 0.0000 0.0000
vn 10.0000 0.0000 0.0000
vn 10.0000 0.0000 0.0000
vn 0.0000 0.0000 10.0000
vn 0.0000 0.0000 10.0000
vn 0.0000 0.0000 10.0000
vn 0.0000 0.0000 10.0000
vn -10.0000 0.0000 0.0000
vn -10.0000 0.0000 0.0000
vn -10.0000 0.0000 0.0000
vn -10.0000 0.0000 0.0000
vn 2.7030 9.6278 0.0019
vn 2.7030 9.6278 0.0019
vn 2.7030 9.6278 0.0019
vn 2.7030 9.6278 0.0019
vn 0.0000 10.0000 0.0000
vn 0.0000 10.0000 0.0000
vn 0.0000 10.0000 0.0000
vn 0.0000 10.0000 0.0000
vn -10.0000 0.0000 0.0000
vn -10.0000 0.0000 0.0000
vn -10.0000 0.0000 0.0000
vn -10.0000 0.0000 0.0000
vn 0.0000 -10.0000 0.0000
vn 0.0000 -10.0000 0.0000
vn 0.0000 -10.0000 0.0000
vn 0.0000 -10.0000 0.0000
vn 10.0000 0.0000 0.0000
vn 10.0000 0.0000 0.0000
vn 10.0000 0.0000 0.0000
vn 10.0000 0.0000 0.0000
vn 8.7464 -4.8478 0.0000
vn 8.7464 -4.8478 0.0000
vn 8.7464 -4.8478 0.0000
vn 8.7464 -4.8478 0.0000
vn 0.0000 0.0000 -10.0000
vn 0.0000 0.0000 -10.0000
vn 0.0000 0.0000 -10.0000
vn 0.0000 0.0000 -10.0000
vn -2.2231 9.7498 -0.0015
vn -2.2231 9.7498 -0.0015
vn -2.2231 9.7498 -0.0015
vn -2.2231 9.7498 -0.0015
vn -0.0000 -0.0002 -10.0000
vn -0.0000 -0.0002 -10.0000
vn -0.0000 -0.0002 -10.0000
vn -0.0000 -0.0002 -10.0000
vn -10.0000 0.0000 0.0000
vn -10.0000 0.0000 0.0000
vn -10.0000 0.0000 0.0000
vn -10.0000 0.0000 0.0000
vn -0.0580 0.0000 -9.9998
vn -0.0580 0.0000 -9.9998
vn -0.0580 0.0000 -9.9998
vn -0.0580 0.0000 -9.9998
vn -0.0092 0.1785 -9.9984
vn -0.0092 0.1785 -9.9984
vn -0.0092 0.1785 -9.9984
vn -0.0092 0.1785 -9.9984
vn -10.0000 0.0000 0.0000
vn -10.0000 0.0000 0.0000
vn -10.0000 0.0000 0.0000
vn -10.0000 0.0000 0.0000
vn 0.0000 0.0000 -10.0000
vn 0.0000 0.0000 -10.0000
vn 0.0000 0.0000 -10.0000
vn 0.0000 0.0000 -10.0000
vn -10.0000 0.0000 0.0000
vn -10.0000 0.0000 0.0000
vn -10.0000 0.0000 0.0000
vn -10.0000 0.0000 0.0000
vn 10.0000 0.0000 0.0000
vn 10.0000 0.0000 0.0000
vn 10.0000 0.0000 0.0000
vn 10.0000 0.0000 0.0000
vn 0.0000 0.0000 10.0000
vn 0.0000 0.0000 10.0000
vn 0.0000 0.0000 10.0000
vn 0.0000 0.0000 10.0000
vn -0.0092 -0.0341 -9.9999
vn -0.0092 -0.0341 -9.9999
vn -0.0092 -0.0341 -9.9999
vn -0.0092 -0.0341 -9.9999
vn 10.0000 0.0000 0.0000
vn 10.0000 0.0000 0.0000
vn 10.0000 0.0000 0.0000
vn 10.0000 0.0000 0.0000
vn 0.0000 -10.0000 0.0000
vn 0.0000 -10.0000 0.0000
vn 0.0000 -10.0000 0.0000
vn 0.0000 -10.0000 0.0000
vn 0.0355 0.0000 -9.9999
vn 0.0355 0.0000 -9.9999
vn 0.0355 0.0000 -9.9999
vn 0.0355 0.0000 -9.9999
vn -0.0092 -0.0297 -10.0000
vn -0.0092 -0.0297 -10.0000
vn -0.0092 -0.0297 -10.0000
vn -0.0092 -0.0297 -10.0000
vn 0.0000 -0.0002 -10.0000
vn 0.0000 -0.0002 -10.0000
vn 0.0000 -0.0002 -10.0000
vn 0.0000 -0.0002 -10.0000
vn -10.0000 0.0000 0.0000
vn -10.0000 0.0000 0.0000
vn -10.0000 0.0000 0.0000
vn -10.0000 0.0000 0.0000
vn -10.0000 0.0000 0.0000
vn -10.0000 0.0000 0.0000
vn -10.0000 0.0000 0.0000
vn -10.0000 0.0000 0.0000
vn 0.0000 10.0000 0.0000
vn 0.0000 10.0000 0.0000
vn 0.0000 10.0000 0.0000
vn 0.0000 10.0000 0.0000
vn 0.0000 0.0000 -10.0000
vn 0.0000 0.0000 -10.0000
vn 0.0000 0.0000 -10.0000
vn 0.0000 0.0000 -10.0000
vn 0.0000 -10.0000 0.0000
vn 0.0000 -10.0000 0.0000
vn 0.0000 -10.0000 0.0000
vn 0.0000 -10.0000 0.0000
vn 0.0000 0.0000 10.0000
vn 0.0000 0.0000 10.0000
vn 0.0000 0.0000 10.0000
vn 0.0000 0.0000 10.0000
vn 0.0000 0.0000 -10.0000
vn 0.0355 -0.0589 -9.9998
vn 0.0355 -0.0589 -9.9998
vn 0.0000 0.0000 -10.0000
vn 0.0000 0.0000 -10.0000
vn -0.0001 0.0001 10.0000
vn 0.0001 0.0002 10.0000
vn 0.0001 0.0002 10.0000
vn 0.0001 0.0002 10.0000
vn -0.0001 0.0001 10.0000

vt 1.4848 0.2321  0.0000
vt 1.0904 0.2321  0.0000
vt 1.0904 0.1040  0.0000
vt 1.4848 0.1040  0.0000
vt 1.9546 0.4943  0.0000
vt 1.9546 0.3323  0.0000
vt 0.0059 0.3323  0.0000
vt 0.0059 0.4943  0.0000
vt 1.3797 0.4936  0.0000
vt 1.3797 0.7475  0.0000
vt -1.0746 0.7475  0.0000
vt -1.0746 0.4936  0.0000
vt 0.0122 0.4143  0.0000
vt 0.0122 0.3723  0.0000
vt 0.9807 0.3723  0.0000
vt 0.9807 0.4143  0.0000
vt 1.7276 0.9904  0.0000
vt 1.7276 0.7490  0.0000
vt -0.0491 0.7490  0.0000
vt -0.0491 0.9909  0.0000
vt -0.0281 0.3288  0.0000
vt -0.0281 0.3802  0.0000
vt 0.9924 0.3802  0.0000
vt 0.9924 0.3288  0.0000
vt 0.0193 0.4803  0.0000
vt 0.1721 0.4803  0.0000
vt 0.1721 0.7453  0.0000
vt 0.0193 0.7453  0.0000
vt 0.9883 0.4585  0.0000
vt 0.9883 0.5415  0.0000
vt 0.0117 0.5415  0.0000
vt 0.0117 0.4585  0.0000
vt 0.1562 0.7500  0.0000
vt -0.0000 0.7500  0.0000
vt -0.0000 0.4980  0.0000
vt 0.1562 0.4980  0.0000
vt 0.9807 0.4143  0.0000
vt 0.9807 0.3723  0.0000
vt 0.0122 0.3723  0.0000
vt 0.0122 0.4143  0.0000
vt 1.1443 0.4983  0.0000
vt 0.1779 0.4983  0.0000
vt 0.1779 0.7481  0.0000
vt 1.1443 0.7481  0.0000
vt 1.7772 0.9965  0.0000
vt 1.7772 0.7495  0.0000
vt -0.0632 0.7495  0.0000
vt -0.0632 0.9970  0.0000
vt 1.1152 0.3375  0.0000
vt 1.1152 0.3840  0.0000
vt 0.2241 0.4775  0.0000
vt 0.2241 0.3375  0.0000
vt 0.8266 0.3309  0.0000
vt 0.8266 0.4640  0.0000
vt 0.5289 0.4640  0.0000
vt 0.5289 0.3309  0.0000
vt 1.0239 0.7416  0.0000
vt 0.5980 0.7189  0.0000
vt 0.5980 0.5988  0.0000
vt 1.0239 0.5344  0.0000
vt -0.3044 0.7416  0.0000
vt 0.0325 0.7189  0.0000
vt 0.5980 0.7189  0.0000
vt 1.0239 0.7416  0.0000
vt 0.3991 0.7561  0.0000
vt 0.4915 0.7561  0.0000
vt 0.4915 0.5369  0.0000
vt 0.3991 0.5369  0.0000
vt -0.3044 0.5344  0.0000
vt 0.0325 0.5988  0.0000
vt 0.0325 0.7189  0.0000
vt -0.3044 0.7416  0.0000
vt 1.3122 0.2894  0.0000
vt 1.3122 0.4580  0.0000
vt -1.1911 0.4580  0.0000
vt -1.1911 0.2894  0.0000
vt 0.0178 0.7448  0.0000
vt 0.0178 0.5034  0.0000
vt 1.8047 0.5034  0.0000
vt 1.8047 0.7448  0.0000
vt 1.8834 0.4932  0.0000
vt 1.8834 0.3377  0.0000
vt -0.0110 0.3377  0.0000
vt -0.0110 0.4932  0.0000
vt 1.0239 0.5344  0.0000
vt 0.5980 0.5988  0.0000
vt 0.0325 0.5988  0.0000
vt -0.3044 0.5344  0.0000
vt 0.3991 0.7561  0.0000
vt 0.4915 0.7561  0.0000
vt 0.4915 0.5369  0.0000
vt 0.3991 0.5369  0.0000
vt 0.9923 0.4207  0.0000
vt 0.9923 0.4582  0.0000
vt 0.0233 0.4582  0.0000
vt 0.0233 0.4207  0.0000
vt 0.9120 0.0018  0.0000
vt 0.1055 0.0018  0.0000
vt 0.1055 0.2353  0.0000
vt 0.9120 0.2353  0.0000
vt -0.0124 0.4949  0.0000
vt 1.3598 0.4949  0.0000
vt 1.3598 0.3375  0.0000
vt -0.0124 0.3375  0.0000
vt 0.2241 0.4775  0.0000
vt -0.6710 0.3615  0.0000
vt -0.6421 0.3375  0.0000
vt 0.2241 0.3375  0.0000
vt 1.9074 0.5053  0.0000
vt 1.1378 0.6099  0.0000
vt 0.7897 0.6099  0.0000
vt -2.0314 0.5053  0.0000
vt 1.9074 0.7471  0.0000
vt 1.1378 0.6892  0.0000
vt -2.0314 0.7471  0.0000
vt 0.7897 0.6892  0.0000
vt 0.6917 0.5918  0.0000
vt 0.6917 0.6453  0.0000
vt 0.0853 0.6453  0.0000
vt 0.0853 0.5918  0.0000
vt 0.4140 0.6687  0.0000
vt 0.3630 0.6687  0.0000
vt 0.3630 0.5684  0.0000
vt 0.4140 0.5684  0.0000
vt 0.6917 0.5918  0.0000
vt 0.6917 0.6453  0.0000
vt 0.0853 0.6453  0.0000
vt 0.0853 0.5918  0.0000
vt 0.3630 0.5684  0.0000
vt 0.4140 0.5684  0.0000
vt 0.4140 0.6687  0.0000
vt 0.3630 0.6687  0.0000
vt -1.0337 0.4123  0.0000
vt -1.0337 0.2522  0.0000
vt -0.3346 0.2522  0.0000
vt 0.3682 0.2522  0.0000
vt 0.3682 0.4123  0.0000
vt 0.2181 0.4775  0.0000
vt -0.6710 0.3840  0.0000
vt -0.6710 0.3375  0.0000
vt 1.0863 0.3375  0.0000
vt 1.1152 0.3615  0.0000

g mesh
f 1/1/1 2/2/2 3/3/3
f 1/1/1 3/3/3 4/4/4
f 5/5/5 6/6/6 7/7/7
f 5/5/5 7/7/7 8/8/8
f 9/9/9 10/10/10 11/11/11
f 9/9/9 11/11/11 12/12/12
f 13/13/13 14/14/14 15/15/15
f 13/13/13 15/15/15 16/16/16
f 17/17/17 18/18/18 19/19/19
f 17/17/17 19/19/19 20/20/20
f 21/21/21 22/22/22 23/23/23
f 21/21/21 23/23/23 24/24/24
f 25/25/25 26/26/26 27/27/27
f 25/25/25 27/27/27 28/28/28
f 29/29/29 30/30/30 31/31/31
f 29/29/29 31/31/31 32/32/32
f 33/33/33 34/34/34 35/35/35
f 33/33/33 35/35/35 36/36/36
f 37/37/37 38/38/38 39/39/39
f 37/37/37 39/39/39 40/40/40
f 41/41/41 42/42/42 43/43/43
f 41/41/41 43/43/43 44/44/44
f 45/45/45 46/46/46 47/47/47
f 45/45/45 47/47/47 48/48/48
f 49/49/49 50/50/50 51/51/51
f 49/49/49 51/51/51 52/52/52
f 53/53/53 54/54/54 55/55/55
f 53/53/53 55/55/55 56/56/56
f 57/57/57 58/58/58 59/59/59
f 57/57/57 59/59/59 60/60/60
f 61/61/61 62/62/62 63/63/63
f 61/61/61 63/63/63 64/64/64
f 65/65/65 66/66/66 67/67/67
f 65/65/65 67/67/67 68/68/68
f 69/69/69 70/70/70 71/71/71
f 69/69/69 71/71/71 72/72/72
f 73/73/73 74/74/74 75/75/75
f 73/73/73 75/75/75 76/76/76
f 77/77/77 78/78/78 79/79/79
f 77/77/77 79/79/79 80/80/80
f 81/81/81 82/82/82 83/83/83
f 81/81/81 83/83/83 84/84/84
f 85/85/85 86/86/86 87/87/87
f 85/85/85 87/87/87 88/88/88
f 89/89/89 90/90/90 91/91/91
f 89/89/89 91/91/91 92/92/92
f 93/93/93 94/94/94 95/95/95
f 93/93/93 95/95/95 96/96/96
f 97/97/97 98/98/98 99/99/99
f 97/97/97 99/99/99 100/100/100
f 101/101/101 102/102/102 103/103/103
f 101/101/101 103/103/103 104/104/104
f 105/105/105 106/106/106 107/107/107
f 105/105/105 107/107/107 108/108/108
f 109/109/109 110/110/110 111/111/111
f 109/109/109 111/111/111 112/112/112
f 113/113/113 114/114/114 110/110/110
f 113/113/113 110/110/110 109/109/109
f 115/115/115 116/116/116 114/114/114
f 115/115/115 114/114/114 113/113/113
f 112/112/112 111/111/111 116/116/116
f 112/112/112 116/116/116 115/115/115
f 117/117/117 118/118/118 119/119/119
f 117/117/117 119/119/119 120/120/120
f 121/121/121 122/122/122 123/123/123
f 121/121/121 123/123/123 124/124/124
f 125/125/125 126/126/126 127/127/127
f 125/125/125 127/127/127 128/128/128
f 129/129/129 130/130/130 131/131/131
f 129/129/129 131/131/131 132/132/132
f 133/133/133 134/134/134 135/135/135
f 133/133/133 135/135/135 136/136/136
f 133/133/133 136/136/136 137/137/137
f 138/138/138 139/139/139 140/140/140
f 138/138/138 140/140/140 141/141/141
f 138/138/138 141/141/141 142/142/142
