# Generated with liteGL.js by Javi Agenjo

v -0.0000 -0.0000 4.0000
v 0.0000 -0.0000 -4.0000
v -0.0000 8.0000 4.0000
v 0.0000 8.0000 -4.0000
v -4.0000 -0.0000 0.0000
v 4.0000 -0.0000 0.0000
v -4.0000 8.0000 0.0000
v 4.0000 8.0000 0.0000

vn 1.0000 0.0000 0.0000
vn 1.0000 0.0000 0.0000
vn 1.0000 0.0000 0.0000
vn 1.0000 0.0000 0.0000
vn 0.0000 0.0000 1.0000
vn 0.0000 0.0000 1.0000
vn 0.0000 0.0000 1.0000
vn 0.0000 0.0000 1.0000

vt 0.0000 0.0000  0.0000
vt 1.0000 0.0000  0.0000
vt 0.0000 1.0000  0.0000
vt 1.0000 1.0000  0.0000
vt 0.0000 0.0000  0.0000
vt 1.0000 0.0000  0.0000
vt 0.0000 1.0000  0.0000
vt 1.0000 1.0000  0.0000

g mesh
f 1/1/1 2/2/2 3/3/3
f 3/3/3 2/2/2 4/4/4
f 5/5/5 6/6/6 7/7/7
f 7/7/7 6/6/6 8/8/8
