# Generated with liteGL.js by Javi Agenjo

v 5.9305 0.1932 15.1240
v 5.9305 13.1886 15.1240
v -14.0695 13.1886 15.1240
v -14.0695 0.1932 15.1240
v 5.9305 0.1932 -4.8760
v 5.9305 13.1886 -4.8760
v 5.9305 13.1886 15.1240
v 5.9305 0.1932 15.1240
v -4.0804 0.1738 -3.4760
v -4.0804 11.3384 -3.4760
v 4.2829 11.3384 -3.4760
v 4.2829 0.1738 -3.4760
v -14.0695 40.0791 15.1240
v -14.0695 40.4764 15.1240
v -14.0695 40.4764 -4.8760
v -14.0695 40.0791 -4.8760
v -4.0633 49.1042 15.1240
v 5.9305 40.4764 15.1240
v 5.9305 40.4764 -4.8760
v -4.0633 49.1042 -4.8760
v -8.0553 29.4837 -4.8760
v -8.0553 36.8291 -4.8760
v -0.0838 36.8291 -4.8760
v -0.0838 29.4837 -4.8760
v 5.9305 13.1886 -4.8760
v 5.9305 26.2337 -4.8760
v 5.9305 26.2337 15.1240
v 5.9305 13.1886 15.1240
v -14.0695 13.1886 -4.8760
v -14.0695 0.1932 -4.8760
v -14.0695 0.1932 15.1240
v -14.0695 13.1886 15.1240
v -4.0633 49.1042 -4.8760
v -14.0695 40.4764 -4.8760
v -14.0695 40.4764 15.1240
v -4.0633 49.1042 15.1240
v 5.9305 13.1886 15.1240
v 5.9305 26.2337 15.1240
v -14.0695 26.2337 15.1240
v -14.0695 13.1886 15.1240
v -14.0695 40.0791 -4.8760
v -14.0695 26.2337 -4.8760
v -14.0695 26.2337 15.1240
v -14.0695 40.0791 15.1240
v 5.9305 40.0791 -4.8760
v 5.9305 40.4764 -4.8760
v 5.9305 40.4764 15.1240
v 5.9305 40.0791 15.1240
v -14.0695 13.1886 -4.8760
v -14.0695 26.2337 -4.8760
v 5.9305 26.2337 -4.8760
v 5.9305 13.1886 -4.8760
v 5.9305 26.2337 -4.8760
v 5.9305 40.0791 -4.8760
v 5.9305 40.0791 15.1240
v 5.9305 26.2337 15.1240
v 5.9305 26.2337 15.1240
v 5.9305 40.0791 15.1240
v -14.0695 40.0791 15.1240
v -14.0695 26.2337 15.1240
v -14.0695 26.2337 -4.8760
v -14.0695 13.1886 -4.8760
v -14.0695 13.1886 15.1240
v -14.0695 26.2337 15.1240
v 5.9305 0.1932 -4.8760
v 4.2829 0.1738 -4.8760
v 4.2829 11.3384 -4.8760
v 5.9305 13.1886 -4.8760
v -14.0695 13.1886 -4.8760
v -4.0804 11.3384 -4.8760
v -4.0804 0.1738 -4.8760
v -14.0695 0.1932 -4.8760
v 4.2829 0.1738 -4.8760
v 4.2829 0.1738 -3.4760
v 4.2829 11.3384 -3.4760
v 4.2829 11.3384 -4.8760
v -4.0804 11.3384 -4.8760
v -4.0804 11.3384 -3.4760
v -4.0804 0.1738 -3.4760
v -4.0804 0.1738 -4.8760
v 4.2829 11.3384 -4.8760
v 4.2829 11.3384 -3.4760
v -4.0804 11.3384 -3.4760
v -4.0804 11.3384 -4.8760
v -14.0695 26.2337 -4.8760
v -8.0553 29.4837 -4.8760
v -0.0838 29.4837 -4.8760
v 5.9305 26.2337 -4.8760
v -14.0695 40.0791 -4.8760
v -8.0553 36.8291 -4.8760
v 5.9305 40.0791 -4.8760
v -0.0838 36.8291 -4.8760
v 5.9305 40.0791 15.1240
v 5.9305 40.4764 15.1240
v -4.0633 49.1042 15.1240
v -14.0695 40.4764 15.1240
v -14.0695 40.0791 15.1240
v -14.0695 40.0791 -4.8760
v -14.0695 40.4764 -4.8760
v -4.0633 49.1042 -4.8760
v 5.9305 40.4764 -4.8760
v 5.9305 40.0791 -4.8760

vn 0.0000 0.0000 10.0000
vn 0.0000 0.0000 10.0000
vn 0.0000 0.0000 10.0000
vn 0.0000 0.0000 10.0000
vn 10.0000 0.0000 0.0000
vn 10.0000 0.0000 0.0000
vn 10.0000 0.0000 0.0000
vn 10.0000 0.0000 0.0000
vn 0.0000 0.0000 -10.0000
vn 0.0000 0.0000 -10.0000
vn 0.0000 0.0000 -10.0000
vn 0.0000 0.0000 -10.0000
vn -10.0000 0.0000 0.0000
vn -10.0000 0.0000 0.0000
vn -10.0000 0.0000 0.0000
vn -10.0000 0.0000 0.0000
vn 6.5348 7.5694 0.0000
vn 6.5348 7.5694 0.0000
vn 6.5348 7.5694 0.0000
vn 6.5348 7.5694 0.0000
vn 0.0000 0.0000 -10.0000
vn 0.0000 0.0000 -10.0000
vn 0.0000 0.0000 -10.0000
vn 0.0000 0.0000 -10.0000
vn 10.0000 0.0000 0.0000
vn 10.0000 0.0000 0.0000
vn 10.0000 0.0000 0.0000
vn 10.0000 0.0000 0.0000
vn -10.0000 0.0000 0.0000
vn -10.0000 0.0000 0.0000
vn -10.0000 0.0000 0.0000
vn -10.0000 0.0000 0.0000
vn -6.5301 7.5735 0.0000
vn -6.5301 7.5735 0.0000
vn -6.5301 7.5735 0.0000
vn -6.5301 7.5735 0.0000
vn 0.0000 0.0000 10.0000
vn 0.0000 0.0000 10.0000
vn 0.0000 0.0000 10.0000
vn 0.0000 0.0000 10.0000
vn -10.0000 0.0000 0.0000
vn -10.0000 0.0000 0.0000
vn -10.0000 0.0000 0.0000
vn -10.0000 0.0000 0.0000
vn 10.0000 0.0000 0.0000
vn 10.0000 0.0000 0.0000
vn 10.0000 0.0000 0.0000
vn 10.0000 0.0000 0.0000
vn 0.0000 0.0000 -10.0000
vn 0.0000 0.0000 -10.0000
vn 0.0000 0.0000 -10.0000
vn 0.0000 0.0000 -10.0000
vn 10.0000 0.0000 0.0000
vn 10.0000 0.0000 0.0000
vn 10.0000 0.0000 0.0000
vn 10.0000 0.0000 0.0000
vn 0.0000 0.0000 10.0000
vn 0.0000 0.0000 10.0000
vn 0.0000 0.0000 10.0000
vn 0.0000 0.0000 10.0000
vn -10.0000 0.0000 0.0000
vn -10.0000 0.0000 0.0000
vn -10.0000 0.0000 0.0000
vn -10.0000 0.0000 0.0000
vn 0.0000 0.0000 -10.0000
vn 0.0000 0.0000 -10.0000
vn 0.0000 0.0000 -10.0000
vn 0.0000 0.0000 -10.0000
vn 0.0000 0.0000 -10.0000
vn 0.0000 0.0000 -10.0000
vn 0.0000 0.0000 -10.0000
vn 0.0000 0.0000 -10.0000
vn -10.0000 0.0000 0.0000
vn -10.0000 0.0000 0.0000
vn -10.0000 0.0000 0.0000
vn -10.0000 0.0000 0.0000
vn 10.0000 0.0000 0.0000
vn 10.0000 0.0000 0.0000
vn 10.0000 0.0000 0.0000
vn 10.0000 0.0000 0.0000
vn 0.0000 -10.0000 0.0000
vn 0.0000 -10.0000 0.0000
vn 0.0000 -10.0000 0.0000
vn 0.0000 -10.0000 0.0000
vn 0.0000 0.0000 -10.0000
vn 0.0000 0.0000 -10.0000
vn 0.0000 0.0000 -10.0000
vn 0.0000 0.0000 -10.0000
vn 0.0000 0.0000 -10.0000
vn 0.0000 0.0000 -10.0000
vn 0.0000 0.0000 -10.0000
vn 0.0000 0.0000 -10.0000
vn 0.0000 0.0000 10.0000
vn 0.0000 0.0000 10.0000
vn 0.0000 0.0000 10.0000
vn 0.0000 0.0000 10.0000
vn 0.0000 0.0000 10.0000
vn 0.0000 0.0000 -10.0000
vn 0.0000 0.0000 -10.0000
vn 0.0000 0.0000 -10.0000
vn 0.0000 0.0000 -10.0000
vn 0.0000 0.0000 -10.0000

vt 1.0197 0.5120  0.0000
vt 1.0197 0.7420  0.0000
vt 0.0041 0.7420  0.0000
vt 0.0041 0.5120  0.0000
vt 1.0234 0.5060  0.0000
vt 1.0234 0.7445  0.0000
vt 0.0117 0.7445  0.0000
vt 0.0117 0.5060  0.0000
vt 1.0018 0.0005  0.0000
vt 1.0018 0.2668  0.0000
vt 0.0430 0.2668  0.0000
vt 0.0430 0.0005  0.0000
vt 1.0000 0.9901  0.0000
vt 1.0000 1.0000  0.0000
vt 0.0000 1.0000  0.0000
vt 0.0000 0.9901  0.0000
vt -0.0831 0.9918  0.0000
vt -0.0831 0.7553  0.0000
vt 1.1145 0.7553  0.0000
vt 1.1145 0.9918  0.0000
vt 0.5413 0.1157  0.0000
vt 0.5413 0.2260  0.0000
vt 0.0603 0.2260  0.0000
vt 0.0603 0.1157  0.0000
vt 1.0000 0.3226  0.0000
vt 1.0000 0.6464  0.0000
vt 0.0000 0.6464  0.0000
vt 0.0000 0.3226  0.0000
vt 0.0352 0.7415  0.0000
vt 0.0352 0.5068  0.0000
vt 1.0000 0.5068  0.0000
vt 1.0000 0.7415  0.0000
vt -0.3028 0.9996  0.0000
vt -0.3028 0.7534  0.0000
vt 0.9740 0.7534  0.0000
vt 0.9740 0.9996  0.0000
vt 1.0000 0.3226  0.0000
vt 1.0000 0.6464  0.0000
vt 0.0000 0.6464  0.0000
vt 0.0000 0.3226  0.0000
vt 0.0000 0.7470  0.0000
vt 0.0000 0.4033  0.0000
vt 1.0000 0.4033  0.0000
vt 1.0000 0.7470  0.0000
vt 1.0000 0.9901  0.0000
vt 1.0000 1.0000  0.0000
vt 0.0000 1.0000  0.0000
vt 0.0000 0.9901  0.0000
vt 1.0000 0.3226  0.0000
vt 1.0000 0.6464  0.0000
vt 0.0000 0.6464  0.0000
vt 0.0000 0.3226  0.0000
vt 1.0000 0.4033  0.0000
vt 1.0000 0.7470  0.0000
vt 0.0000 0.7470  0.0000
vt 0.0000 0.4033  0.0000
vt 1.0000 0.4033  0.0000
vt 1.0000 0.7470  0.0000
vt 0.0000 0.7470  0.0000
vt 0.0000 0.4033  0.0000
vt 0.0000 0.6464  0.0000
vt 0.0000 0.3226  0.0000
vt 1.0000 0.3226  0.0000
vt 1.0000 0.6464  0.0000
vt -0.0210 0.5081  0.0000
vt 0.0633 0.5077  0.0000
vt 0.0633 0.7046  0.0000
vt -0.0210 0.7372  0.0000
vt 1.0024 0.7372  0.0000
vt 0.4913 0.7046  0.0000
vt 0.4913 0.5077  0.0000
vt 1.0024 0.5081  0.0000
vt 0.3959 0.5144  0.0000
vt 0.5914 0.5144  0.0000
vt 0.5914 0.7639  0.0000
vt 0.3959 0.7639  0.0000
vt 0.3959 0.5144  0.0000
vt 0.5914 0.5144  0.0000
vt 0.5914 0.7639  0.0000
vt 0.3959 0.7639  0.0000
vt 1.0313 0.4180  0.0000
vt 1.0313 0.5039  0.0000
vt 0.0469 0.5039  0.0000
vt 0.0469 0.4180  0.0000
vt 1.1636 0.4223  0.0000
vt 0.8187 0.4978  0.0000
vt 0.3614 0.4978  0.0000
vt 0.0165 0.4223  0.0000
vt 1.1636 0.7437  0.0000
vt 0.8187 0.6683  0.0000
vt 0.0165 0.7437  0.0000
vt 0.3614 0.6683  0.0000
vt 0.9941 0.2600  0.0000
vt 0.9941 0.2711  0.0000
vt 0.5120 0.5129  0.0000
vt 0.0293 0.2711  0.0000
vt 0.0293 0.2600  0.0000
vt 0.9941 0.2600  0.0000
vt 0.9941 0.2711  0.0000
vt 0.5114 0.5129  0.0000
vt 0.0293 0.2711  0.0000
vt 0.0293 0.2600  0.0000

g mesh
f 1/1/1 2/2/2 3/3/3
f 1/1/1 3/3/3 4/4/4
f 5/5/5 6/6/6 7/7/7
f 5/5/5 7/7/7 8/8/8
f 9/9/9 10/10/10 11/11/11
f 9/9/9 11/11/11 12/12/12
f 13/13/13 14/14/14 15/15/15
f 13/13/13 15/15/15 16/16/16
f 17/17/17 18/18/18 19/19/19
f 17/17/17 19/19/19 20/20/20
f 21/21/21 22/22/22 23/23/23
f 21/21/21 23/23/23 24/24/24
f 25/25/25 26/26/26 27/27/27
f 25/25/25 27/27/27 28/28/28
f 29/29/29 30/30/30 31/31/31
f 29/29/29 31/31/31 32/32/32
f 33/33/33 34/34/34 35/35/35
f 33/33/33 35/35/35 36/36/36
f 37/37/37 38/38/38 39/39/39
f 37/37/37 39/39/39 40/40/40
f 41/41/41 42/42/42 43/43/43
f 41/41/41 43/43/43 44/44/44
f 45/45/45 46/46/46 47/47/47
f 45/45/45 47/47/47 48/48/48
f 49/49/49 50/50/50 51/51/51
f 49/49/49 51/51/51 52/52/52
f 53/53/53 54/54/54 55/55/55
f 53/53/53 55/55/55 56/56/56
f 57/57/57 58/58/58 59/59/59
f 57/57/57 59/59/59 60/60/60
f 61/61/61 62/62/62 63/63/63
f 61/61/61 63/63/63 64/64/64
f 65/65/65 66/66/66 67/67/67
f 65/65/65 67/67/67 68/68/68
f 69/69/69 70/70/70 71/71/71
f 69/69/69 71/71/71 72/72/72
f 68/68/68 67/67/67 70/70/70
f 68/68/68 70/70/70 69/69/69
f 73/73/73 74/74/74 75/75/75
f 73/73/73 75/75/75 76/76/76
f 77/77/77 78/78/78 79/79/79
f 77/77/77 79/79/79 80/80/80
f 81/81/81 82/82/82 83/83/83
f 81/81/81 83/83/83 84/84/84
f 85/85/85 86/86/86 87/87/87
f 85/85/85 87/87/87 88/88/88
f 89/89/89 90/90/90 86/86/86
f 89/89/89 86/86/86 85/85/85
f 91/91/91 92/92/92 90/90/90
f 91/91/91 90/90/90 89/89/89
f 88/88/88 87/87/87 92/92/92
f 88/88/88 92/92/92 91/91/91
f 93/93/93 94/94/94 95/95/95
f 93/93/93 95/95/95 96/96/96
f 93/93/93 96/96/96 97/97/97
f 98/98/98 99/99/99 100/100/100
f 98/98/98 100/100/100 101/101/101
f 98/98/98 101/101/101 102/102/102
